<?xml version="1.0" encoding="UTF-8" standalone="no"?>
<!DOCTYPE svg PUBLIC "-//W3C//DTD SVG 20010904//EN" "http://www.w3.org/TR/2001/REC-SVG-20010904/DTD/svg10.dtd">
<svg version="1.0" xmlns="http://www.w3.org/2000/svg" width="256.000000pt" height="256.000000pt" viewBox="0 0 256.000000 256.000000" preserveAspectRatio="xMidYMid meet">
<metadata>
Created by potrace 1.11, written by Peter Selinger 2001-2013
</metadata>
<g transform="translate(0.000000,256.000000) scale(0.100000,-0.100000)" fill="#000000" stroke="none">
<path d="M760 2436 c-49 -17 -96 -61 -120 -112 -18 -37 -21 -62 -22 -202 l-1 -159 -191 1 c-105 1 -213 -2 -240 -6 -62 -9 -118 -46 -153 -101 l-28 -42 0 -525 c0 -289 3 -537 8 -552 10 -39 63 -95 111 -120 37 -20 59 -22 221 -23 l180 -1 5 -245 c3 -169 8 -239 15 -228 6 9 46 56 90 104 44 48 89 97 100 109 11 13 56 63 101 112 45 49 92 102 106 119 l25 29 400 2 c375 2 403 3 444 22 91 41 130 111 131 236 l0 80 37 -40 c20 -22 74 -82 121 -134 47 -52 100 -110 118 -129 l32 -35 0 242 0 242 68 0 c104 1 174 39 220 123 15 29 17 78 19 552 3 580 5 562 -67 632 -66 64 -41 63 -909 62 -611 0 -794 -3 -821 -13z"/>
</g>
</svg>